<svg width="20" height="13" viewBox="0 0 20 13" fill="none" xmlns="http://www.w3.org/2000/svg">
<path d="M8.4896 6.89076L8.48795 6.50716C8.48795 4.91289 8.58131 3.45943 8.72195 2.51193L8.84515 1.92273C8.9137 1.61068 9.00381 1.25537 9.09776 1.07399C9.44167 0.410501 10.1141 0 10.8338 0H10.8965C11.3656 0.0155131 12.3513 0.427208 12.3513 0.441527C13.9372 1.10698 16.997 3.11536 18.4102 4.54717L18.8208 4.97704C18.9284 5.09354 19.0492 5.23142 19.1242 5.3389C19.3747 5.67064 19.5 6.08115 19.5 6.49165C19.5 6.94988 19.3594 7.3759 19.0935 7.72434L18.6715 8.17968L18.577 8.27685C17.2948 9.66706 13.9467 11.9403 12.1953 12.636L11.9308 12.7374C11.6126 12.8514 11.1668 12.9875 10.8965 13C10.5526 13 10.224 12.92 9.91084 12.7625C9.51967 12.5418 9.20767 12.1933 9.03513 11.7828C8.92522 11.4988 8.75268 10.6456 8.75268 10.6301C8.5945 9.76978 8.50278 8.41228 8.4896 6.89076ZM0 6.49952C0 5.59141 0.729173 4.85513 1.62853 4.85513L5.63602 5.20955C6.34156 5.20955 6.91355 5.78711 6.91355 6.49952C6.91355 7.21313 6.34156 7.7895 5.63602 7.7895L1.62853 8.14391C0.729173 8.14391 0 7.40764 0 6.49952Z" fill="white"/>
</svg>
