<svg width="21" height="20" viewBox="0 0 21 20" fill="none" xmlns="http://www.w3.org/2000/svg">
<path d="M20.995 20.0001V19.9993H21.0003V12.6643C21.0003 9.07593 20.1892 6.31177 15.7844 6.31177C13.6669 6.31177 12.2459 7.41843 11.6658 8.4676H11.6045V6.64677H7.42816V19.9993H11.7769V13.3876C11.7769 11.6468 12.1234 9.96343 14.387 9.96343C16.6174 9.96343 16.6507 11.9501 16.6507 13.4993V20.0001H20.995Z" fill="#545761"/>
<path d="M0.34671 6.64746H4.70071V20H0.34671V6.64746Z" fill="#545761"/>
<path d="M2.52175 0C1.12962 0 0 1.07583 0 2.40167C0 3.7275 1.12962 4.82583 2.52175 4.82583C3.91387 4.82583 5.0435 3.7275 5.0435 2.40167C5.04262 1.07583 3.913 0 2.52175 0V0Z" fill="#545761"/>
</svg>
