<svg width="21" height="14" viewBox="0 0 21 14" fill="none" xmlns="http://www.w3.org/2000/svg">
<path d="M20.1485 1.29856C19.6053 0.352816 19.0157 0.178858 17.8154 0.112705C16.6163 0.0330766 13.6009 0 10.9887 0C8.37139 0 5.35482 0.0330766 4.15695 0.11148C2.95909 0.178858 2.36829 0.351591 1.82005 1.29856C1.26054 2.24308 0.972656 3.86996 0.972656 6.73414C0.972656 6.73659 0.972656 6.73781 0.972656 6.73781C0.972656 6.74026 0.972656 6.74149 0.972656 6.74149V6.74394C0.972656 9.59587 1.26054 11.235 1.82005 12.1697C2.36829 13.1155 2.95783 13.287 4.1557 13.3666C5.35482 13.4352 8.37139 13.4756 10.9887 13.4756C13.6009 13.4756 16.6163 13.4352 17.8166 13.3678C19.017 13.2882 19.6065 13.1167 20.1498 12.1709C20.7143 11.2362 20.9997 9.5971 20.9997 6.74516C20.9997 6.74516 20.9997 6.74149 20.9997 6.73904C20.9997 6.73904 20.9997 6.73659 20.9997 6.73536C20.9997 3.86996 20.7143 2.24308 20.1485 1.29856ZM8.48279 10.413V3.06264L14.7412 6.73781L8.48279 10.413Z" fill="#545761"/>
</svg>
