<svg width="22" height="22" viewBox="0 0 22 22" fill="none" xmlns="http://www.w3.org/2000/svg">
<path d="M8.27274 20.0909C8.77482 20.0909 9.18183 19.6839 9.18183 19.1818C9.18183 18.6797 8.77482 18.2727 8.27274 18.2727C7.77066 18.2727 7.36365 18.6797 7.36365 19.1818C7.36365 19.6839 7.77066 20.0909 8.27274 20.0909Z" stroke="#FF800B" stroke-width="2" stroke-linecap="round" stroke-linejoin="round"/>
<path d="M18.2727 20.0909C18.7748 20.0909 19.1818 19.6839 19.1818 19.1818C19.1818 18.6797 18.7748 18.2727 18.2727 18.2727C17.7707 18.2727 17.3636 18.6797 17.3636 19.1818C17.3636 19.6839 17.7707 20.0909 18.2727 20.0909Z" stroke="#FF800B" stroke-width="2" stroke-linecap="round" stroke-linejoin="round"/>
<path d="M1 1H4.63636L7.07273 13.1727C7.15586 13.5913 7.38355 13.9672 7.71595 14.2348C8.04835 14.5024 8.46427 14.6445 8.89091 14.6364H17.7273C18.1539 14.6445 18.5698 14.5024 18.9022 14.2348C19.2346 13.9672 19.4623 13.5913 19.5455 13.1727L21 5.54545H5.54545" stroke="#FF800B" stroke-width="2" stroke-linecap="round" stroke-linejoin="round"/>
</svg>
