<svg width="20" height="20" viewBox="0 0 20 20" fill="none" xmlns="http://www.w3.org/2000/svg">
<path d="M19.7556 18.5773L14.0682 12.8899C15.1698 11.5291 15.8331 9.79989 15.8331 7.91659C15.8331 3.55164 12.2815 0 7.91655 0C3.5516 0 0 3.5516 0 7.91655C0 12.2815 3.55164 15.8331 7.91659 15.8331C9.79989 15.8331 11.5291 15.1698 12.8899 14.0682L18.5773 19.7556C18.7398 19.9181 18.9531 19.9998 19.1665 19.9998C19.3798 19.9998 19.5931 19.9181 19.7556 19.7556C20.0815 19.4298 20.0815 18.9031 19.7556 18.5773ZM7.91659 14.1665C4.46995 14.1665 1.66666 11.3632 1.66666 7.91655C1.66666 4.46991 4.46995 1.66662 7.91659 1.66662C11.3632 1.66662 14.1665 4.46991 14.1665 7.91655C14.1665 11.3632 11.3632 14.1665 7.91659 14.1665Z" fill="#FF800B"/>
</svg>
