<svg width="26" height="26" viewBox="0 0 26 26" fill="none" xmlns="http://www.w3.org/2000/svg">
<circle cx="13" cy="13" r="13" fill="#00AFD7"/>
<path d="M18.7862 9.64046C18.7127 9.55422 18.5945 9.5318 18.4979 9.58579C18.3987 9.6342 18.2961 9.67404 18.1909 9.70494C18.3549 9.4797 18.4787 9.22387 18.5561 8.95032C18.5901 8.81267 18.5138 8.67142 18.3856 8.63484C18.3171 8.61531 18.2441 8.62921 18.1861 8.67283C17.8209 8.88504 17.4326 9.04807 17.0302 9.1582C16.2017 8.31869 14.9397 8.21405 14.001 8.90702C13.2779 9.43192 12.8798 10.3391 12.9632 11.272C11.3957 11.1286 9.95352 10.2946 8.97941 8.96838C8.92936 8.90339 8.85365 8.86761 8.77521 8.87193C8.69567 8.87706 8.62369 8.92421 8.58304 8.99778C8.25244 9.57798 8.15666 10.2779 8.31784 10.9356C8.40049 11.2736 8.54217 11.5916 8.73535 11.8729C8.64833 11.8271 8.56644 11.7709 8.49129 11.7052C8.38826 11.6155 8.23699 11.6324 8.15339 11.743C8.11871 11.789 8.09975 11.8463 8.09972 11.9054C8.114 12.8596 8.60207 13.7329 9.37962 14.1955C9.27472 14.1817 9.17117 14.1579 9.07021 14.1243C8.94317 14.0833 8.80919 14.1606 8.77098 14.297C8.75431 14.3565 8.75821 14.4205 8.78194 14.4771C9.11942 15.2887 9.79409 15.8815 10.6019 16.0761C9.83227 16.5423 8.94607 16.7381 8.06754 16.6363C7.95363 16.6207 7.84571 16.695 7.81146 16.8127C7.77614 16.9294 7.82236 17.0567 7.92197 17.117C8.99767 17.8032 10.2214 18.1765 11.4724 18.2002C12.6726 18.1955 13.8449 17.8106 14.8422 17.0938C16.7462 15.7372 17.9329 13.3016 17.7677 11.1224C18.1748 10.7989 18.5279 10.4037 18.8122 9.95359C18.8706 9.85494 18.8599 9.72646 18.7862 9.64046Z" fill="white"/>
</svg>
